<svg width="20" height="20" viewBox="0 0 20 20" fill="none" xmlns="http://www.w3.org/2000/svg">
<path d="M0 1.43266C0 0.641875 0.662031 0 1.47812 0H18.5219C19.3383 0 20 0.641875 20 1.43266V18.5676C20 19.3586 19.3383 20 18.5219 20H1.47812C0.662109 20 0 19.3587 0 18.5678V1.43242V1.43266Z" fill="#272D37"/>
<path d="M6.07779 16.7374V7.73329H3.08498V16.7374H6.0781H6.07779ZM4.58201 6.50415C5.62544 6.50415 6.27505 5.81274 6.27505 4.94868C6.25552 4.06493 5.62544 3.39282 4.60185 3.39282C3.57755 3.39282 2.90857 4.06493 2.90857 4.9486C2.90857 5.81267 3.55794 6.50407 4.5624 6.50407H4.58177L4.58201 6.50415ZM7.73435 16.7374H10.7269V11.7096C10.7269 11.4409 10.7465 11.1714 10.8255 10.9795C11.0418 10.4416 11.5342 9.88478 12.3611 9.88478C13.4438 9.88478 13.8772 10.7104 13.8772 11.9209V16.7374H16.8697V11.5747C16.8697 8.80915 15.3934 7.5222 13.4244 7.5222C11.8101 7.5222 11.1011 8.42446 10.7072 9.03899H10.7272V7.7336H7.73451C7.77357 8.57829 7.73427 16.7377 7.73427 16.7377L7.73435 16.7374Z" fill="white"/>
</svg>
