<svg width="128" height="32" viewBox="0 0 128 32" fill="none" xmlns="http://www.w3.org/2000/svg">
<path d="M80.32 8.70399H76.096C76 8.70399 75.904 8.80001 75.904 8.89601V11.344C75.904 11.44 76 11.536 76.096 11.536H80.32C80.416 11.536 80.512 11.44 80.512 11.344V8.89601C80.56 8.80001 80.464 8.70399 80.32 8.70399ZM80.272 12.352H72.112C72.016 12.352 71.872 12.448 71.824 12.544L70.768 16.528L70.72 16.72L69.472 12.448C69.424 12.352 69.328 12.256 69.184 12.256H66.016C65.92 12.256 65.776 12.352 65.728 12.448L64.528 16.432L64.48 16.624L64.432 16.528L63.952 14.56L63.424 12.592C63.376 12.496 63.28 12.4 63.136 12.4H56.752V8.94399C56.752 8.84799 56.608 8.704 56.464 8.752L52.432 10C52.288 10.048 52.24 10.096 52.24 10.192V12.352H51.184C51.088 12.352 50.992 12.448 50.992 12.544V15.616C50.992 15.712 51.088 15.808 51.184 15.808H52.24V19.552C52.24 22.192 53.68 23.44 56.32 23.44C57.424 23.44 58.48 23.2 59.2 22.816V19.648C59.2 19.504 59.056 19.456 58.96 19.456C58.528 19.648 58.192 19.696 57.808 19.696C57.088 19.696 56.704 19.408 56.704 18.592V15.856H59.008C59.104 15.856 59.2 15.76 59.2 15.664V13.072L62.224 23.104C62.272 23.2 62.368 23.296 62.512 23.296H65.872C65.968 23.296 66.112 23.2 66.16 23.104L67.6 18.64L68.32 20.944L68.992 23.056C69.04 23.152 69.136 23.248 69.28 23.248H72.64C72.736 23.248 72.88 23.152 72.928 23.056L76 12.976V23.056C76 23.152 76.096 23.248 76.192 23.248H80.272C80.368 23.248 80.464 23.152 80.464 23.056V12.592C80.464 12.448 80.368 12.352 80.272 12.352ZM85.648 8.70399H81.568C81.472 8.70399 81.376 8.80001 81.376 8.89601V23.056C81.376 23.152 81.472 23.248 81.568 23.248H85.648C85.744 23.248 85.84 23.152 85.84 23.056V8.89601C85.84 8.80001 85.744 8.70399 85.648 8.70399ZM91.072 8.70399H86.848C86.752 8.70399 86.656 8.80001 86.656 8.89601V11.344C86.656 11.44 86.752 11.536 86.848 11.536H91.072C91.168 11.536 91.264 11.44 91.264 11.344V8.89601C91.312 8.80001 91.216 8.70399 91.072 8.70399ZM91.024 12.352H86.944C86.848 12.352 86.752 12.448 86.752 12.544V23.056C86.752 23.152 86.848 23.248 86.944 23.248H91.024C91.12 23.248 91.216 23.152 91.216 23.056V12.592C91.216 12.448 91.12 12.352 91.024 12.352ZM97.792 12.112C94.192 12.112 91.648 14.752 91.648 17.824V17.872C91.648 20.944 94.192 23.536 97.744 23.536C101.344 23.536 103.888 20.896 103.888 17.824V17.776C103.888 14.704 101.344 12.112 97.792 12.112ZM99.52 17.824C99.52 18.88 98.8 19.696 97.792 19.696C96.784 19.696 96.016 18.832 96.016 17.776V17.728C96.016 16.672 96.736 15.856 97.744 15.856C98.752 15.856 99.52 16.72 99.52 17.824ZM36.112 4C29.488 4 24.112 9.376 24.112 16C24.112 22.624 29.488 28 36.112 28C42.736 28 48.112 22.624 48.112 16C48.112 9.376 42.736 4 36.112 4ZM36.112 24.832C31.216 24.832 27.28 20.896 27.28 16C27.28 11.104 31.216 7.168 36.112 7.168C41.008 7.168 44.944 11.104 44.944 16C44.944 20.896 41.008 24.832 36.112 24.832Z" fill="white"/>
<path d="M39.088 15.52C40.4665 15.52 41.584 14.4025 41.584 13.024C41.584 11.6455 40.4665 10.528 39.088 10.528C37.7095 10.528 36.592 11.6455 36.592 13.024C36.592 14.4025 37.7095 15.52 39.088 15.52Z" fill="white"/>
<path d="M39.088 21.472C40.4665 21.472 41.584 20.3545 41.584 18.976C41.584 17.5975 40.4665 16.48 39.088 16.48C37.7095 16.48 36.592 17.5975 36.592 18.976C36.592 20.3545 37.7095 21.472 39.088 21.472Z" fill="white"/>
<path d="M33.136 21.472C34.5145 21.472 35.632 20.3545 35.632 18.976C35.632 17.5975 34.5145 16.48 33.136 16.48C31.7575 16.48 30.64 17.5975 30.64 18.976C30.64 20.3545 31.7575 21.472 33.136 21.472Z" fill="white"/>
<path d="M33.136 15.52C34.5145 15.52 35.632 14.4025 35.632 13.024C35.632 11.6455 34.5145 10.528 33.136 10.528C31.7575 10.528 30.64 11.6455 30.64 13.024C30.64 14.4025 31.7575 15.52 33.136 15.52Z" fill="white"/>
</svg>
